<svg version="1.1" xmlns="http://www.w3.org/2000/svg" viewBox="0 0 1034 1039.3218569468336" width="1034" height="1039.3218569468336">
  <!-- svg-source:excalidraw -->
  
  <defs>
    <style class="style-fonts">
      @font-face {
        font-family: "Virgil";
        src: url("https://excalidraw.com/Virgil.woff2");
      }
      @font-face {
        font-family: "Cascadia";
        src: url("https://excalidraw.com/Cascadia.woff2");
      }
      @font-face {
        font-family: "Assistant";
        src: url("https://excalidraw.com/Assistant-Regular.woff2");
      }
    </style>
    
  </defs>
  <rect x="0" y="0" width="1034" height="1039.3218569468336" fill="#ffffff"></rect><g transform="translate(146 39) rotate(0 27.049999237060547 12.5)"><text x="0" y="17.52" font-family="Virgil, Segoe UI Emoji" font-size="20px" fill="#1e1e1e" text-anchor="start" style="white-space: pre;" direction="ltr" dominant-baseline="alphabetic">Client</text></g><g transform="translate(649 36) rotate(0 30.850000381469727 12.5)"><text x="0" y="17.52" font-family="Virgil, Segoe UI Emoji" font-size="20px" fill="#1e1e1e" text-anchor="start" style="white-space: pre;" direction="ltr" dominant-baseline="alphabetic">Server</text></g><g stroke-linecap="round" transform="translate(10 10) rotate(0 507 509)"><path d="M32 0 C309.09 -2.27, 587.51 -1.6, 982 0 M32 0 C270.39 3.43, 507.99 3.26, 982 0 M982 0 C1003.22 -1.7, 1015.44 9.84, 1014 32 M982 0 C1004.32 -0.58, 1013.11 8.57, 1014 32 M1014 32 C1016.98 327.34, 1016.52 623.03, 1014 986 M1014 32 C1012.06 380.98, 1012.75 730.37, 1014 986 M1014 986 C1013.96 1008.96, 1003.89 1019.22, 982 1018 M1014 986 C1015.73 1009.52, 1001.58 1015.73, 982 1018 M982 1018 C782.69 1021.78, 585.65 1021.79, 32 1018 M982 1018 C612.76 1017.76, 243.16 1017.87, 32 1018 M32 1018 C11.34 1017.73, -0.7 1006.48, 0 986 M32 1018 C10.12 1020.14, -1.78 1007.15, 0 986 M0 986 C-0.07 762.87, 0.84 541.09, 0 32 M0 986 C-0.19 744.96, -0.03 504.58, 0 32 M0 32 C0.07 11.06, 9.7 1.18, 32 0 M0 32 C0.67 8.48, 10.73 1.04, 32 0" stroke="#1e1e1e" stroke-width="2" fill="none"></path></g><g stroke-linecap="round"><g transform="translate(451 13) rotate(0 0 507.5)"><path d="M-0.23 0.3 C-0.16 169.46, -0.55 845.76, -0.55 1014.86 M-1.82 -0.59 C-1.87 168.78, -1.9 846.86, -1.78 1016.32" stroke="#1e1e1e" stroke-width="2" fill="none"></path></g></g><mask></mask><g stroke-linecap="round" transform="translate(109 348) rotate(0 42 25)"><path d="M12.5 0 C30 1.2, 45.67 1.37, 71.5 0 M12.5 0 C30.48 -0.1, 48.57 0.81, 71.5 0 M71.5 0 C80.46 -0.45, 83.71 2.28, 84 12.5 M71.5 0 C80.07 1.22, 83.62 5.53, 84 12.5 M84 12.5 C84.19 18.96, 84.03 25.68, 84 37.5 M84 12.5 C83.19 21.09, 84.29 27.75, 84 37.5 M84 37.5 C82.93 45.53, 80.05 51.11, 71.5 50 M84 37.5 C85.49 47.49, 81.29 51.1, 71.5 50 M71.5 50 C50.34 49.08, 31.31 51.94, 12.5 50 M71.5 50 C50.68 51.18, 31.22 51.2, 12.5 50 M12.5 50 C4.31 48.5, 1.15 44.76, 0 37.5 M12.5 50 C5.81 50.03, -1.79 47.87, 0 37.5 M0 37.5 C-1.14 30.48, 0.83 24.71, 0 12.5 M0 37.5 C0.25 31.62, -0.21 27.57, 0 12.5 M0 12.5 C-0.44 3.17, 4.77 -1.42, 12.5 0 M0 12.5 C0.49 4.08, 6.1 0.96, 12.5 0" stroke="#1e1e1e" stroke-width="2" fill="none"></path></g><g transform="translate(128 359) rotate(0 23.399999618530273 12.5)"><text x="0" y="17.52" font-family="Virgil, Segoe UI Emoji" font-size="20px" fill="#1e1e1e" text-anchor="start" style="white-space: pre;" direction="ltr" dominant-baseline="alphabetic">Login</text></g><g transform="translate(77 117) rotate(0 39.108333587646484 12.5)"><text x="0" y="17.52" font-family="Virgil, Segoe UI Emoji" font-size="20px" fill="#1e1e1e" text-anchor="start" style="white-space: pre;" direction="ltr" dominant-baseline="alphabetic">CLIENT</text></g><g transform="translate(69 191) rotate(0 47.78333282470703 12.5)"><text x="0" y="17.52" font-family="Virgil, Segoe UI Emoji" font-size="20px" fill="#1e1e1e" text-anchor="start" style="white-space: pre;" direction="ltr" dominant-baseline="alphabetic">WEBSITE</text></g><g stroke-linecap="round"><g transform="translate(115 149) rotate(0 0 18)"><path d="M-0.5 0.36 C-0.51 6.36, -0.33 30.03, -0.16 35.89 M0.25 0.07 C0.16 6.16, -0.7 30.57, -0.67 36.53" stroke="#1e1e1e" stroke-width="2" fill="none"></path></g><g transform="translate(115 149) rotate(0 0 18)"><path d="M-6.52 19.51 C-4.32 24.01, -3.46 29.83, -0.67 36.53 M-6.52 19.51 C-5.33 23.32, -4.23 26.71, -0.67 36.53" stroke="#1e1e1e" stroke-width="2" fill="none"></path></g><g transform="translate(115 149) rotate(0 0 18)"><path d="M5.79 19.73 C4.56 24.12, 2 29.88, -0.67 36.53 M5.79 19.73 C4.38 23.55, 2.86 26.9, -0.67 36.53" stroke="#1e1e1e" stroke-width="2" fill="none"></path></g></g><mask></mask><g stroke-linecap="round"><g transform="translate(115 224) rotate(0 -1 19.5)"><path d="M-0.08 -0.25 C-0.34 6.23, -1.43 32.78, -1.79 39.4 M-0.78 0.81 C-1.08 7.38, -1.8 32.33, -2.11 38.64" stroke="#1e1e1e" stroke-width="2" fill="none"></path></g><g transform="translate(115 224) rotate(0 -1 19.5)"><path d="M-8.09 20.05 C-6.86 25.38, -4.11 29.62, -2.11 38.64 M-8.09 20.05 C-5.61 26.76, -3.76 34.51, -2.11 38.64" stroke="#1e1e1e" stroke-width="2" fill="none"></path></g><g transform="translate(115 224) rotate(0 -1 19.5)"><path d="M5.26 20.55 C2.94 25.74, 2.13 29.85, -2.11 38.64 M5.26 20.55 C2.6 27.12, -0.68 34.67, -2.11 38.64" stroke="#1e1e1e" stroke-width="2" fill="none"></path></g></g><mask></mask><g transform="translate(50 275) rotate(0 65.83333587646484 12.5)"><text x="0" y="17.52" font-family="Virgil, Segoe UI Emoji" font-size="20px" fill="#1e1e1e" text-anchor="start" style="white-space: pre;" direction="ltr" dominant-baseline="alphabetic">LOIGN PAGE</text></g><g stroke-linecap="round"><g transform="translate(84 296) rotate(0 -0.5 34.5)"><path d="M0.88 -0.57 C0.68 11.24, -0.01 58.28, -0.4 69.71 M-0.12 1.74 C-0.49 13.31, -0.64 56.78, -1.04 67.95" stroke="#1e1e1e" stroke-width="2" fill="none"></path></g></g><mask></mask><g stroke-linecap="round"><g transform="translate(85 368) rotate(0 9.5 0)"><path d="M0.21 0.01 C3.3 -0.15, 15.7 -0.53, 18.78 -0.45 M-0.34 -0.47 C2.63 -0.34, 14.87 0, 18.23 0.03" stroke="#1e1e1e" stroke-width="2" fill="none"></path></g></g><mask></mask><g transform="translate(81 473) rotate(0 53.08333206176758 12.5)"><text x="0" y="17.52" font-family="Virgil, Segoe UI Emoji" font-size="20px" fill="#1e1e1e" text-anchor="start" style="white-space: pre;" direction="ltr" dominant-baseline="alphabetic">&lt;NAVLINK&gt;</text></g><g transform="translate(74 447) rotate(0 69.13333129882812 12.5)"><text x="0" y="17.52" font-family="Virgil, Segoe UI Emoji" font-size="20px" fill="#1e1e1e" text-anchor="start" style="white-space: pre;" direction="ltr" dominant-baseline="alphabetic">User Clicks on</text></g><g transform="translate(58 501) rotate(0 87.89167022705078 12.5)"><text x="0" y="17.52" font-family="Virgil, Segoe UI Emoji" font-size="20px" fill="#1e1e1e" text-anchor="start" style="white-space: pre;" direction="ltr" dominant-baseline="alphabetic">Points to "/login" </text></g><g transform="translate(50 551) rotate(0 109.45832824707031 50)"><text x="0" y="17.52" font-family="Virgil, Segoe UI Emoji" font-size="20px" fill="#1e1e1e" text-anchor="start" style="white-space: pre;" direction="ltr" dominant-baseline="alphabetic">Finds LOGIN </text><text x="0" y="42.519999999999996" font-family="Virgil, Segoe UI Emoji" font-size="20px" fill="#1e1e1e" text-anchor="start" style="white-space: pre;" direction="ltr" dominant-baseline="alphabetic">Component-&gt; </text><text x="0" y="67.52" font-family="Virgil, Segoe UI Emoji" font-size="20px" fill="#1e1e1e" text-anchor="start" style="white-space: pre;" direction="ltr" dominant-baseline="alphabetic">Bundle JS &amp; LOADS </text><text x="0" y="92.52" font-family="Virgil, Segoe UI Emoji" font-size="20px" fill="#1e1e1e" text-anchor="start" style="white-space: pre;" direction="ltr" dominant-baseline="alphabetic">LOGIN COMPONENT</text></g><g stroke-linecap="round"><g transform="translate(151 407) rotate(0 0 13)"><path d="M-0.04 -0.12 C0 4.22, 0.01 21.78, 0.03 26.14 M-0.72 -0.65 C-0.74 3.5, -0.46 20.69, -0.39 25.25" stroke="#1e1e1e" stroke-width="2" fill="none"></path></g></g><mask></mask><g stroke-linecap="round"><g transform="translate(146 531) rotate(0 0.5 13.5)"><path d="M0.41 -0.52 C0.64 4.02, 0.7 22.61, 0.86 27.18 M-0.05 0.4 C0.14 4.78, 0.15 21.79, 0.36 26.31" stroke="#1e1e1e" stroke-width="2" fill="none"></path></g></g><mask></mask><g stroke-linecap="round"><g transform="translate(148 645) rotate(0 0 17.5)"><path d="M0.28 -0.49 C0.18 5.37, 0.03 29.35, -0.09 35.22 M-0.24 0.45 C-0.46 6.14, -0.72 28.58, -0.57 34.36" stroke="#1e1e1e" stroke-width="2" fill="none"></path></g></g><mask></mask><g transform="translate(74 685) rotate(0 59.724998474121094 37.5)"><text x="0" y="17.52" font-family="Virgil, Segoe UI Emoji" font-size="20px" fill="#1e1e1e" text-anchor="start" style="white-space: pre;" direction="ltr" dominant-baseline="alphabetic">User enters</text><text x="0" y="42.519999999999996" font-family="Virgil, Segoe UI Emoji" font-size="20px" fill="#1e1e1e" text-anchor="start" style="white-space: pre;" direction="ltr" dominant-baseline="alphabetic">EMAIL &amp; </text><text x="0" y="67.52" font-family="Virgil, Segoe UI Emoji" font-size="20px" fill="#1e1e1e" text-anchor="start" style="white-space: pre;" direction="ltr" dominant-baseline="alphabetic">PASSWORD</text></g><g stroke-linecap="round"><g transform="translate(145 764) rotate(0 0.5 15)"><path d="M-0.3 0.48 C-0.02 5.57, 1.31 25.17, 1.48 30.05 M0.54 0.25 C0.81 5.48, 1.35 25.77, 1.29 30.78" stroke="#1e1e1e" stroke-width="2" fill="none"></path></g></g><mask></mask><g transform="translate(48 802) rotate(0 78.49166870117188 25)"><text x="0" y="17.52" font-family="Virgil, Segoe UI Emoji" font-size="20px" fill="#1e1e1e" text-anchor="start" style="white-space: pre;" direction="ltr" dominant-baseline="alphabetic">User clicks </text><text x="0" y="42.519999999999996" font-family="Virgil, Segoe UI Emoji" font-size="20px" fill="#1e1e1e" text-anchor="start" style="white-space: pre;" direction="ltr" dominant-baseline="alphabetic">LOGIN Button</text></g><g stroke-linecap="round"><g transform="translate(142 852) rotate(0 0.5 14.5)"><path d="M-0.16 0.31 C-0.05 5, 0.83 23.94, 0.98 28.67 M0.77 0 C0.77 4.98, 0.62 24.34, 0.53 29.19" stroke="#1e1e1e" stroke-width="2" fill="none"></path></g></g><mask></mask><g transform="translate(39 894) rotate(0 85.89167022705078 12.5)"><text x="0" y="17.52" font-family="Virgil, Segoe UI Emoji" font-size="20px" fill="#1e1e1e" text-anchor="start" style="white-space: pre;" direction="ltr" dominant-baseline="alphabetic">Triggers onLogin()</text></g><g stroke-linecap="round"><g transform="translate(139 929) rotate(0 0 15)"><path d="M0.36 -0.22 C0.42 4.81, 0.51 25.11, 0.51 30.09 M-0.12 -0.81 C-0.1 4.05, 0.29 24.02, 0.34 29.18" stroke="#1e1e1e" stroke-width="2" fill="none"></path></g></g><mask></mask><g transform="translate(60 970) rotate(0 62.49166488647461 12.5)"><text x="0" y="17.52" font-family="Virgil, Segoe UI Emoji" font-size="20px" fill="#1e1e1e" text-anchor="start" style="white-space: pre;" direction="ltr" dominant-baseline="alphabetic">Submits form</text></g><g stroke-linecap="round"><g transform="translate(196 980) rotate(0 17.5 0.5)"><path d="M0.42 -0.02 C6.18 0.23, 28.99 0.85, 34.73 1.11 M-0.03 -0.51 C5.9 -0.4, 30.08 -0.01, 35.82 0.2" stroke="#1e1e1e" stroke-width="2" fill="none"></path></g></g><mask></mask><g transform="translate(255 979) rotate(0 73.4749984741211 12.5)"><text x="0" y="17.52" font-family="Virgil, Segoe UI Emoji" font-size="20px" fill="#1e1e1e" text-anchor="start" style="white-space: pre;" direction="ltr" dominant-baseline="alphabetic">extracts data</text></g><g stroke-linecap="round"><g transform="translate(323 959) rotate(0 -0.5 -18)"><path d="M0.18 -0.44 C0 -6.42, -0.85 -30.23, -0.96 -36.23 M-0.4 0.52 C-0.64 -5.36, -1.34 -29.54, -1.36 -35.64" stroke="#1e1e1e" stroke-width="2" fill="none"></path></g></g><mask></mask><g transform="translate(267 836) rotate(0 59.45832824707031 37.5)"><text x="0" y="17.52" font-family="Virgil, Segoe UI Emoji" font-size="20px" fill="#1e1e1e" text-anchor="start" style="white-space: pre;" direction="ltr" dominant-baseline="alphabetic">check if </text><text x="0" y="42.519999999999996" font-family="Virgil, Segoe UI Emoji" font-size="20px" fill="#1e1e1e" text-anchor="start" style="white-space: pre;" direction="ltr" dominant-baseline="alphabetic">email&amp;Pswd </text><text x="0" y="67.52" font-family="Virgil, Segoe UI Emoji" font-size="20px" fill="#1e1e1e" text-anchor="start" style="white-space: pre;" direction="ltr" dominant-baseline="alphabetic">exists</text></g><g stroke-linecap="round"><g transform="translate(327 824) rotate(0 0 -24.5)"><path d="M0.07 0.3 C0.12 -7.86, -0.17 -40.73, -0.17 -48.87 M-0.55 -0.02 C-0.55 -8.37, -0.74 -41.55, -0.69 -49.76" stroke="#1e1e1e" stroke-width="2" fill="none"></path></g></g><mask></mask><g transform="translate(265 637) rotate(0 79.89166259765625 62.5)"><text x="0" y="17.52" font-family="Virgil, Segoe UI Emoji" font-size="20px" fill="#1e1e1e" text-anchor="start" style="white-space: pre;" direction="ltr" dominant-baseline="alphabetic">triggers </text><text x="0" y="42.519999999999996" font-family="Virgil, Segoe UI Emoji" font-size="20px" fill="#1e1e1e" text-anchor="start" style="white-space: pre;" direction="ltr" dominant-baseline="alphabetic">LoginService </text><text x="0" y="67.52" font-family="Virgil, Segoe UI Emoji" font-size="20px" fill="#1e1e1e" text-anchor="start" style="white-space: pre;" direction="ltr" dominant-baseline="alphabetic">function in </text><text x="0" y="92.52" font-family="Virgil, Segoe UI Emoji" font-size="20px" fill="#1e1e1e" text-anchor="start" style="white-space: pre;" direction="ltr" dominant-baseline="alphabetic">useBoundStore</text><text x="0" y="117.52" font-family="Virgil, Segoe UI Emoji" font-size="20px" fill="#1e1e1e" text-anchor="start" style="white-space: pre;" direction="ltr" dominant-baseline="alphabetic">-&gt; authStore</text></g><g stroke-linecap="round"><g transform="translate(333 625) rotate(0 -1.5 -144)"><path d="M-1.04 -0.43 C-1.71 -48.68, -3.17 -240.27, -3.56 -288.35 M0.62 -1.7 C-0.3 -49.27, -3.97 -239.26, -4.81 -287" stroke="#1e1e1e" stroke-width="2" fill="none"></path></g></g><mask></mask><g transform="translate(257 220) rotate(0 78.35000610351562 50)"><text x="0" y="17.52" font-family="Virgil, Segoe UI Emoji" font-size="20px" fill="#1e1e1e" text-anchor="start" style="white-space: pre;" direction="ltr" dominant-baseline="alphabetic">await axios: </text><text x="0" y="42.519999999999996" font-family="Virgil, Segoe UI Emoji" font-size="20px" fill="#1e1e1e" text-anchor="start" style="white-space: pre;" direction="ltr" dominant-baseline="alphabetic">sends data </text><text x="0" y="67.52" font-family="Virgil, Segoe UI Emoji" font-size="20px" fill="#1e1e1e" text-anchor="start" style="white-space: pre;" direction="ltr" dominant-baseline="alphabetic">from react to </text><text x="0" y="92.52" font-family="Virgil, Segoe UI Emoji" font-size="20px" fill="#1e1e1e" text-anchor="start" style="white-space: pre;" direction="ltr" dominant-baseline="alphabetic">backend server</text></g><g stroke-linecap="round"><g transform="translate(403 270) rotate(0 76 -0.5)"><path d="M0.97 -0.25 C26.26 -0.23, 126.89 -0.6, 152.22 -0.71 M0.02 -1.42 C25.13 -1.72, 125.94 -3, 151.39 -2.69" stroke="#1e1e1e" stroke-width="2" fill="none"></path></g></g><mask></mask><g transform="translate(573 249) rotate(0 145.6666717529297 12.5)"><text x="0" y="17.52" font-family="Virgil, Segoe UI Emoji" font-size="20px" fill="#1e1e1e" text-anchor="start" style="white-space: pre;" direction="ltr" dominant-baseline="alphabetic">Post: data sends to backend</text></g><g transform="translate(572 295) rotate(0 129.60833740234375 12.5)"><text x="0" y="17.52" font-family="Virgil, Segoe UI Emoji" font-size="20px" fill="#1e1e1e" text-anchor="start" style="white-space: pre;" direction="ltr" dominant-baseline="alphabetic">${DOMAIN}/api/user/login</text></g><g stroke-linecap="round"><g transform="translate(700 328) rotate(0 0 15)"><path d="M-0.2 0.05 C-0.12 5.04, 0.18 25.36, 0.23 30.35 M0.69 -0.4 C0.75 4.4, 0.07 24.4, -0.08 29.56" stroke="#1e1e1e" stroke-width="2" fill="none"></path></g></g><mask></mask><g transform="translate(635 375) rotate(0 74.38333129882812 37.5)"><text x="0" y="17.52" font-family="Virgil, Segoe UI Emoji" font-size="20px" fill="#1e1e1e" text-anchor="start" style="white-space: pre;" direction="ltr" dominant-baseline="alphabetic">verifyUser, if </text><text x="0" y="42.519999999999996" font-family="Virgil, Segoe UI Emoji" font-size="20px" fill="#1e1e1e" text-anchor="start" style="white-space: pre;" direction="ltr" dominant-baseline="alphabetic">not, an error </text><text x="0" y="67.52" font-family="Virgil, Segoe UI Emoji" font-size="20px" fill="#1e1e1e" text-anchor="start" style="white-space: pre;" direction="ltr" dominant-baseline="alphabetic">will appear</text></g><g stroke-linecap="round"><g transform="translate(776 414) rotate(0 15 0.5)"><path d="M0.14 -0.24 C5.18 -0.01, 24.97 0.82, 29.86 1.07 M-0.45 0.82 C4.54 1.18, 24.2 1.89, 29.36 1.81" stroke="#1e1e1e" stroke-width="2" fill="none"></path></g></g><mask></mask><g transform="translate(835 354) rotate(0 63.400001525878906 62.5)"><text x="0" y="17.52" font-family="Virgil, Segoe UI Emoji" font-size="20px" fill="#1e1e1e" text-anchor="start" style="white-space: pre;" direction="ltr" dominant-baseline="alphabetic">if user == </text><text x="0" y="42.519999999999996" font-family="Virgil, Segoe UI Emoji" font-size="20px" fill="#1e1e1e" text-anchor="start" style="white-space: pre;" direction="ltr" dominant-baseline="alphabetic">null, it will </text><text x="0" y="67.52" font-family="Virgil, Segoe UI Emoji" font-size="20px" fill="#1e1e1e" text-anchor="start" style="white-space: pre;" direction="ltr" dominant-baseline="alphabetic">not move </text><text x="0" y="92.52" font-family="Virgil, Segoe UI Emoji" font-size="20px" fill="#1e1e1e" text-anchor="start" style="white-space: pre;" direction="ltr" dominant-baseline="alphabetic">past login </text><text x="0" y="117.52" font-family="Virgil, Segoe UI Emoji" font-size="20px" fill="#1e1e1e" text-anchor="start" style="white-space: pre;" direction="ltr" dominant-baseline="alphabetic">page</text></g><g stroke-linecap="round"><g transform="translate(866 492) rotate(0 1.5 19.5)"><path d="M-0.37 -0.01 C0.08 6.53, 2.35 32.49, 2.97 39.04 M0.44 -0.49 C0.8 6.16, 2.06 33.28, 2.53 39.76" stroke="#1e1e1e" stroke-width="2" fill="none"></path></g></g><mask></mask><g transform="translate(824 556) rotate(0 78.16665649414062 75)"><text x="0" y="17.52" font-family="Virgil, Segoe UI Emoji" font-size="20px" fill="#1e1e1e" text-anchor="start" style="white-space: pre;" direction="ltr" dominant-baseline="alphabetic">else user not </text><text x="0" y="42.519999999999996" font-family="Virgil, Segoe UI Emoji" font-size="20px" fill="#1e1e1e" text-anchor="start" style="white-space: pre;" direction="ltr" dominant-baseline="alphabetic">equal null: </text><text x="0" y="67.52" font-family="Virgil, Segoe UI Emoji" font-size="20px" fill="#1e1e1e" text-anchor="start" style="white-space: pre;" direction="ltr" dominant-baseline="alphabetic">useEffect will </text><text x="0" y="92.52" font-family="Virgil, Segoe UI Emoji" font-size="20px" fill="#1e1e1e" text-anchor="start" style="white-space: pre;" direction="ltr" dominant-baseline="alphabetic">trigger </text><text x="0" y="117.52" font-family="Virgil, Segoe UI Emoji" font-size="20px" fill="#1e1e1e" text-anchor="start" style="white-space: pre;" direction="ltr" dominant-baseline="alphabetic">navigate() to </text><text x="0" y="142.52" font-family="Virgil, Segoe UI Emoji" font-size="20px" fill="#1e1e1e" text-anchor="start" style="white-space: pre;" direction="ltr" dominant-baseline="alphabetic">"/posts"</text></g><g stroke-linecap="round"><g transform="translate(773 595) rotate(0 19 0.5)"><path d="M0 -0.45 C6.42 -0.19, 32.06 1.22, 38.46 1.51 M-0.66 0.51 C5.73 0.63, 31.78 0.82, 38.27 0.8" stroke="#1e1e1e" stroke-width="2" fill="none"></path></g></g><mask></mask><g stroke-opacity="0.1" fill-opacity="0.1" transform="translate(880 579) rotate(0 35 -7.5)" stroke="none"><path fill="#f08c00" d="M 0,-2.20 Q 0,-2.20 2.01,-2.11 4.02,-2.02 6.60,-1.93 9.18,-1.83 12.29,-1.76 15.40,-1.69 17.58,-1.64 19.77,-1.59 21.27,-1.67 22.77,-1.74 24.38,-1.92 25.99,-2.10 27.39,-2.23 28.78,-2.36 29.98,-2.46 31.17,-2.56 33.00,-2.68 34.82,-2.79 36.29,-2.85 37.75,-2.91 38.96,-2.96 40.17,-3.02 41.83,-3.45 43.50,-3.88 45.12,-4.01 46.73,-4.15 47.94,-4.19 49.15,-4.24 50.41,-4.45 51.68,-4.66 52.92,-4.84 54.16,-5.01 55.58,-5.12 57.01,-5.23 58.11,-5.27 59.21,-5.31 60.73,-5.35 62.25,-5.38 63.75,-5.41 65.26,-5.44 66.76,-5.46 68.26,-5.48 69.37,-5.46 70.49,-5.44 71.73,-4.96 72.97,-4.48 73.53,-4.49 74.09,-4.50 74.49,-4.35 74.89,-4.20 75.24,-3.96 75.59,-3.72 75.87,-3.40 76.16,-3.08 76.35,-2.71 76.55,-2.33 76.65,-1.92 76.76,-1.50 76.76,-1.08 76.76,-0.65 76.66,-0.24 76.56,0.16 76.36,0.54 76.16,0.92 75.88,1.24 75.60,1.55 75.25,1.80 74.90,2.04 74.50,2.19 74.11,2.34 73.68,2.39 73.26,2.45 72.84,2.40 72.42,2.35 71.12,1.88 69.81,1.42 68.20,0.70 66.59,-0.02 64.66,-0.69 62.72,-1.37 61.05,-1.69 59.38,-2.02 57.28,-2.28 55.17,-2.54 53.67,-2.58 52.17,-2.62 50.97,-2.60 49.76,-2.58 48.39,-2.57 47.02,-2.56 45.58,-2.56 44.13,-2.56 42.66,-2.57 41.18,-2.57 39.11,-2.70 37.05,-2.83 35.02,-2.91 32.99,-3.00 31.56,-2.96 30.12,-2.91 28.93,-2.85 27.75,-2.79 26.04,-2.67 24.34,-2.54 23.09,-2.52 21.84,-2.49 20.74,-2.46 19.63,-2.43 17.15,-2.59 14.66,-2.75 11.60,-2.87 8.53,-3.00 6.23,-3.14 3.93,-3.28 3.72,-3.45 3.51,-3.62 3.27,-3.65 3.04,-3.67 2.82,-3.76 2.60,-3.84 2.40,-3.97 2.21,-4.11 2.05,-4.28 1.90,-4.46 1.79,-4.67 1.68,-4.88 1.62,-5.11 1.57,-5.33 1.57,-5.57 1.57,-5.81 1.62,-6.03 1.68,-6.26 1.79,-6.47 1.90,-6.68 2.06,-6.86 2.21,-7.03 2.40,-7.17 2.60,-7.30 2.82,-7.38 3.04,-7.47 3.27,-7.49 3.51,-7.52 5.95,-8.32 8.40,-9.12 14.05,-9.82 19.70,-10.52 26.09,-11.07 32.47,-11.63 39.81,-11.85 47.16,-12.08 54.58,-12.17 62.01,-12.25 68.05,-12.29 74.08,-12.32 78.13,-12.04 82.18,-11.76 84.16,-11.67 86.14,-11.58 88.21,-11.24 90.29,-10.91 90.86,-10.86 91.44,-10.81 91.63,-10.76 91.81,-10.70 91.98,-10.60 92.15,-10.50 92.30,-10.37 92.44,-10.23 92.54,-10.06 92.64,-9.90 92.71,-9.71 92.77,-9.52 92.78,-9.33 92.80,-9.13 92.76,-8.94 92.73,-8.74 92.65,-8.56 92.57,-8.38 92.46,-8.23 92.34,-8.07 92.18,-7.95 92.03,-7.82 91.85,-7.74 91.67,-7.66 91.48,-7.62 91.29,-7.58 91.09,-7.59 90.90,-7.60 88.99,-7.63 87.09,-7.65 79.29,-7.64 71.50,-7.63 62.44,-7.63 53.38,-7.63 46.95,-7.64 40.51,-7.64 33.41,-8.22 26.30,-8.81 19.86,-9.34 13.41,-9.88 10.11,-10.11 6.80,-10.33 4.83,-10.40 2.86,-10.46 0.31,-10.52 -2.22,-10.57 -4.46,-10.59 -6.69,-10.62 -9.65,-10.63 -12.62,-10.64 -14.83,-10.94 -17.04,-11.24 -18.82,-11.31 -20.61,-11.39 -21.02,-11.61 -21.43,-11.83 -21.62,-11.87 -21.82,-11.91 -22.00,-11.99 -22.19,-12.08 -22.34,-12.20 -22.50,-12.33 -22.62,-12.49 -22.74,-12.64 -22.82,-12.83 -22.91,-13.01 -22.94,-13.21 -22.97,-13.41 -22.96,-13.61 -22.95,-13.81 -22.88,-14.00 -22.82,-14.19 -22.72,-14.36 -22.61,-14.53 -22.47,-14.67 -22.33,-14.81 -22.15,-14.91 -21.98,-15.02 -21.79,-15.07 -21.60,-15.13 -21.40,-15.14 -21.19,-15.15 -17.50,-15.47 -13.81,-15.78 -7.82,-15.95 -1.82,-16.12 6.46,-16.19 14.75,-16.25 23.16,-16.28 31.57,-16.30 39.45,-16.31 47.34,-16.32 55.89,-16.03 64.44,-15.75 69.49,-15.62 74.55,-15.50 77.27,-15.45 79.99,-15.40 81.44,-15.49 82.88,-15.58 84.16,-15.46 85.45,-15.34 85.68,-15.31 85.91,-15.28 86.12,-15.20 86.34,-15.11 86.52,-14.98 86.71,-14.85 86.86,-14.67 87.02,-14.50 87.12,-14.29 87.23,-14.09 87.28,-13.86 87.33,-13.64 87.33,-13.41 87.33,-13.18 87.27,-12.95 87.21,-12.73 87.10,-12.52 86.99,-12.32 86.84,-12.15 86.68,-11.98 86.49,-11.85 86.30,-11.72 86.08,-11.64 85.87,-11.56 85.64,-11.54 85.41,-11.51 83.76,-11.20 82.11,-10.89 79.25,-10.48 76.40,-10.06 72.29,-9.62 68.19,-9.17 63.53,-8.99 58.86,-8.82 49.69,-8.75 40.53,-8.69 32.61,-8.67 24.70,-8.65 19.61,-8.64 14.52,-8.64 10.01,-8.93 5.51,-9.22 3.03,-9.35 0.56,-9.47 0.40,-9.50 0.24,-9.53 0.10,-9.60 -0.04,-9.67 -0.17,-9.77 -0.30,-9.87 -0.40,-10.00 -0.50,-10.12 -0.56,-10.27 -0.63,-10.42 -0.66,-10.58 -0.69,-10.74 -0.68,-10.90 -0.67,-11.06 -0.62,-11.22 -0.57,-11.37 -0.48,-11.51 -0.40,-11.65 -0.29,-11.77 -0.17,-11.88 -0.03,-11.97 0.10,-12.05 0.25,-12.10 0.41,-12.14 0.57,-12.15 0.73,-12.16 4.72,-13.01 8.71,-13.86 12.82,-14.02 16.94,-14.18 22.42,-14.24 27.90,-14.30 37.99,-14.32 48.08,-14.34 57.83,-14.34 67.58,-14.34 73.16,-14.34 78.74,-14.34 80.83,-14.35 82.91,-14.35 83.08,-14.33 83.24,-14.31 83.39,-14.26 83.55,-14.20 83.68,-14.11 83.82,-14.01 83.93,-13.89 84.04,-13.77 84.11,-13.62 84.19,-13.48 84.23,-13.32 84.27,-13.16 84.27,-12.99 84.27,-12.83 84.23,-12.67 84.19,-12.51 84.11,-12.36 84.04,-12.22 83.93,-12.10 83.82,-11.97 83.68,-11.88 83.55,-11.79 83.40,-11.73 83.24,-11.67 83.08,-11.65 82.92,-11.63 78.34,-11.64 73.76,-11.65 67.50,-11.65 61.25,-11.66 55.42,-11.66 49.60,-11.67 43.96,-11.67 38.33,-11.67 34.49,-11.67 30.66,-11.67 29.03,-11.87 27.40,-12.07 27.22,-12.09 27.04,-12.11 26.88,-12.18 26.71,-12.24 26.56,-12.35 26.41,-12.45 26.29,-12.58 26.17,-12.72 26.09,-12.88 26.00,-13.04 25.96,-13.21 25.92,-13.39 25.92,-13.57 25.92,-13.75 25.96,-13.93 26.00,-14.10 26.09,-14.26 26.17,-14.42 26.29,-14.56 26.41,-14.69 26.56,-14.79 26.71,-14.90 26.88,-14.96 27.04,-15.03 27.22,-15.05 27.40,-15.07 31.26,-15.52 35.12,-15.98 38.25,-16.10 41.37,-16.22 43.56,-16.27 45.74,-16.31 47.35,-16.44 48.95,-16.57 49.20,-16.54 49.46,-16.50 49.69,-16.39 49.91,-16.28 50.10,-16.10 50.28,-15.92 50.39,-15.69 50.50,-15.46 50.54,-15.21 50.57,-14.95 50.52,-14.70 50.48,-14.45 50.35,-14.23 50.23,-14.01 50.04,-13.84 49.85,-13.67 49.61,-13.56 49.38,-13.46 49.12,-13.44 48.87,-13.42 48.62,-13.48 48.37,-13.54 48.16,-13.68 47.94,-13.82 47.78,-14.02 47.62,-14.22 47.53,-14.46 47.45,-14.70 47.44,-14.95 47.43,-15.21 47.51,-15.45 47.58,-15.69 47.73,-15.90 47.88,-16.11 48.09,-16.26 48.29,-16.41 48.54,-16.48 48.78,-16.56 49.04,-16.55 49.29,-16.55 49.53,-16.46 49.77,-16.37 49.97,-16.21 50.17,-16.05 50.31,-15.83 50.44,-15.62 50.51,-15.37 50.57,-15.12 50.55,-14.87 50.53,-14.62 50.43,-14.38 50.33,-14.15 50.16,-13.96 49.98,-13.77 49.76,-13.64 49.54,-13.51 49.29,-13.47 49.04,-13.42 49.04,-13.42 49.04,-13.42 47.43,-13.46 45.82,-13.50 43.67,-13.42 41.51,-13.34 38.47,-13.18 35.43,-13.01 31.42,-12.54 27.40,-12.07 27.22,-12.09 27.04,-12.11 26.88,-12.18 26.71,-12.24 26.56,-12.35 26.41,-12.45 26.29,-12.58 26.17,-12.72 26.09,-12.88 26.00,-13.04 25.96,-13.21 25.92,-13.39 25.92,-13.57 25.92,-13.75 25.96,-13.93 26.00,-14.10 26.09,-14.26 26.17,-14.42 26.29,-14.56 26.41,-14.69 26.56,-14.79 26.71,-14.90 26.88,-14.96 27.04,-15.03 27.22,-15.05 27.40,-15.07 29.03,-14.69 30.66,-14.32 34.50,-14.32 38.33,-14.32 43.96,-14.32 49.60,-14.32 55.42,-14.33 61.25,-14.33 67.50,-14.33 73.76,-14.34 78.34,-14.35 82.91,-14.35 83.08,-14.33 83.24,-14.32 83.39,-14.26 83.55,-14.20 83.68,-14.11 83.82,-14.01 83.93,-13.89 84.03,-13.77 84.11,-13.62 84.19,-13.48 84.23,-13.32 84.27,-13.16 84.27,-12.99 84.27,-12.83 84.23,-12.67 84.19,-12.51 84.11,-12.36 84.04,-12.22 83.93,-12.10 83.82,-11.97 83.68,-11.88 83.55,-11.79 83.40,-11.73 83.24,-11.67 83.08,-11.65 82.92,-11.63 80.83,-11.63 78.75,-11.63 73.17,-11.62 67.59,-11.60 57.84,-11.58 48.09,-11.55 38.02,-11.51 27.94,-11.46 22.51,-11.36 17.07,-11.26 13.08,-11.06 9.08,-10.85 5.88,-10.46 2.68,-10.06 1.62,-9.77 0.56,-9.47 0.40,-9.50 0.24,-9.53 0.10,-9.60 -0.04,-9.67 -0.17,-9.77 -0.30,-9.87 -0.40,-10.00 -0.50,-10.12 -0.56,-10.27 -0.63,-10.42 -0.66,-10.58 -0.69,-10.74 -0.68,-10.90 -0.67,-11.06 -0.62,-11.22 -0.57,-11.37 -0.49,-11.51 -0.40,-11.65 -0.29,-11.77 -0.17,-11.88 -0.03,-11.97 0.10,-12.05 0.25,-12.10 0.41,-12.14 0.57,-12.15 0.73,-12.16 3.20,-12.05 5.68,-11.94 10.09,-11.67 14.51,-11.40 19.60,-11.43 24.68,-11.45 32.59,-11.51 40.50,-11.56 49.61,-11.67 58.73,-11.78 63.28,-12.02 67.82,-12.25 71.84,-12.77 75.87,-13.29 78.61,-13.81 81.35,-14.32 83.40,-14.83 85.45,-15.34 85.68,-15.31 85.91,-15.28 86.12,-15.20 86.34,-15.11 86.52,-14.98 86.71,-14.85 86.86,-14.67 87.02,-14.50 87.12,-14.29 87.23,-14.09 87.28,-13.86 87.33,-13.64 87.33,-13.41 87.33,-13.18 87.27,-12.95 87.21,-12.73 87.10,-12.52 86.99,-12.32 86.84,-12.15 86.68,-11.98 86.49,-11.85 86.30,-11.72 86.08,-11.64 85.87,-11.56 85.64,-11.54 85.41,-11.51 84.12,-11.99 82.83,-12.48 81.39,-12.61 79.94,-12.74 77.21,-12.79 74.48,-12.84 69.41,-12.96 64.35,-13.07 55.84,-13.35 47.34,-13.63 39.46,-13.61 31.58,-13.59 23.18,-13.55 14.78,-13.50 6.52,-13.42 -1.73,-13.33 -7.61,-13.13 -13.49,-12.93 -17.46,-12.38 -21.43,-11.83 -21.62,-11.87 -21.82,-11.91 -22.00,-11.99 -22.19,-12.08 -22.34,-12.20 -22.50,-12.33 -22.62,-12.49 -22.74,-12.64 -22.82,-12.83 -22.91,-13.01 -22.94,-13.21 -22.97,-13.41 -22.96,-13.61 -22.95,-13.81 -22.88,-14.00 -22.82,-14.19 -22.72,-14.36 -22.61,-14.53 -22.47,-14.67 -22.33,-14.81 -22.15,-14.91 -21.98,-15.02 -21.79,-15.07 -21.60,-15.13 -21.40,-15.14 -21.20,-15.15 -20.68,-14.70 -20.16,-14.24 -18.42,-14.06 -16.68,-13.89 -14.64,-13.61 -12.61,-13.33 -9.64,-13.32 -6.67,-13.32 -4.42,-13.31 -2.18,-13.30 0.40,-13.27 2.99,-13.24 4.99,-13.12 6.98,-12.99 10.31,-12.77 13.63,-12.54 20.08,-12.02 26.52,-11.49 33.52,-10.93 40.51,-10.36 46.94,-10.37 53.38,-10.39 62.43,-10.41 71.49,-10.43 79.24,-10.48 87.00,-10.52 89.22,-10.67 91.44,-10.81 91.63,-10.76 91.81,-10.70 91.98,-10.60 92.15,-10.50 92.30,-10.37 92.44,-10.23 92.54,-10.06 92.64,-9.90 92.71,-9.71 92.77,-9.52 92.78,-9.33 92.80,-9.13 92.76,-8.94 92.73,-8.74 92.65,-8.56 92.57,-8.38 92.46,-8.23 92.34,-8.07 92.18,-7.95 92.03,-7.82 91.85,-7.74 91.67,-7.66 91.48,-7.62 91.29,-7.58 91.09,-7.59 90.90,-7.60 90.35,-7.84 89.81,-8.08 87.89,-8.41 85.98,-8.75 83.98,-8.89 81.99,-9.03 78.04,-9.28 74.10,-9.54 68.08,-9.48 62.05,-9.42 54.65,-9.30 47.25,-9.17 40.00,-8.90 32.75,-8.62 26.43,-8.00 20.11,-7.38 14.82,-6.67 9.52,-5.96 6.52,-4.79 3.51,-3.62 3.27,-3.65 3.04,-3.67 2.82,-3.76 2.60,-3.84 2.40,-3.97 2.21,-4.11 2.05,-4.28 1.90,-4.46 1.79,-4.67 1.68,-4.88 1.62,-5.11 1.57,-5.33 1.57,-5.57 1.57,-5.81 1.62,-6.03 1.68,-6.26 1.79,-6.47 1.90,-6.68 2.05,-6.86 2.21,-7.03 2.40,-7.17 2.60,-7.30 2.82,-7.38 3.04,-7.47 3.27,-7.49 3.51,-7.52 3.99,-7.12 4.47,-6.71 6.50,-6.85 8.53,-6.99 11.60,-7.12 14.66,-7.24 17.15,-7.40 19.63,-7.56 20.74,-7.53 21.84,-7.50 23.09,-7.47 24.34,-7.45 26.05,-7.32 27.75,-7.20 28.93,-7.14 30.12,-7.08 31.56,-7.03 32.99,-6.99 35.02,-7.08 37.05,-7.16 39.12,-7.29 41.18,-7.41 42.66,-7.42 44.14,-7.42 45.60,-7.41 47.05,-7.40 48.44,-7.38 49.83,-7.36 51.07,-7.30 52.30,-7.24 53.84,-7.20 55.38,-7.15 57.71,-7.21 60.05,-7.27 62.06,-7.13 64.07,-6.99 66.73,-6.56 69.39,-6.13 70.48,-5.69 71.57,-5.26 72.83,-4.88 74.09,-4.50 74.49,-4.35 74.89,-4.20 75.24,-3.96 75.59,-3.72 75.87,-3.40 76.16,-3.08 76.35,-2.71 76.55,-2.33 76.65,-1.92 76.76,-1.50 76.76,-1.08 76.76,-0.65 76.66,-0.24 76.56,0.16 76.36,0.54 76.16,0.92 75.88,1.24 75.60,1.55 75.25,1.80 74.90,2.04 74.50,2.19 74.11,2.34 73.68,2.39 73.26,2.45 72.84,2.40 72.42,2.35 71.92,2.29 71.42,2.23 69.84,1.85 68.26,1.48 66.76,1.46 65.26,1.44 63.76,1.41 62.26,1.38 60.76,1.35 59.26,1.33 57.73,1.32 56.20,1.31 54.90,1.41 53.60,1.52 51.40,1.88 49.20,2.25 48.05,2.23 46.90,2.21 45.61,2.23 44.32,2.24 42.24,2.63 40.17,3.02 38.96,2.96 37.75,2.91 36.29,2.85 34.82,2.79 33.00,2.68 31.17,2.56 29.98,2.46 28.78,2.36 27.39,2.23 25.99,2.10 24.38,1.92 22.77,1.74 21.27,1.67 19.77,1.59 17.58,1.64 15.40,1.69 12.29,1.76 9.18,1.83 6.60,1.93 4.02,2.02 2.01,2.11 0,2.20 -0.26,2.17 -0.52,2.13 -0.77,2.04 -1.02,1.95 -1.24,1.79 -1.46,1.64 -1.63,1.45 -1.81,1.25 -1.93,1.01 -2.05,0.78 -2.12,0.52 -2.18,0.26 -2.18,-0.00 -2.18,-0.26 -2.12,-0.52 -2.05,-0.78 -1.93,-1.01 -1.81,-1.25 -1.63,-1.45 -1.46,-1.64 -1.24,-1.79 -1.02,-1.95 -0.77,-2.04 -0.52,-2.13 -0.26,-2.17 0.00,-2.20 0.00,-2.20 L 0,-2.20 Z"></path></g><g stroke-opacity="0.1" fill-opacity="0.1" transform="translate(829 595) rotate(0 49 -0.5)" stroke="none"><path fill="#f08c00" d="M -0.45,-1.60 Q -0.45,-1.60 1.56,-2.14 3.58,-2.67 5.27,-3.23 6.97,-3.79 8.03,-4.14 9.09,-4.48 11.70,-4.52 14.31,-4.57 17.39,-4.55 20.46,-4.54 23.20,-4.52 25.94,-4.50 32.28,-4.47 38.63,-4.45 45.37,-4.15 52.12,-3.84 55.55,-3.70 58.97,-3.57 63.00,-3.51 67.03,-3.44 69.61,-3.41 72.19,-3.38 73.86,-3.46 75.53,-3.53 77.24,-3.73 78.95,-3.93 80.94,-4.04 82.92,-4.16 84.38,-4.18 85.84,-4.21 87.76,-4.38 89.68,-4.55 91.48,-4.68 93.29,-4.81 93.73,-4.92 94.18,-5.04 94.44,-5.02 94.69,-5.01 94.94,-4.94 95.18,-4.86 95.40,-4.73 95.62,-4.60 95.80,-4.42 95.99,-4.24 96.12,-4.03 96.26,-3.81 96.33,-3.56 96.41,-3.32 96.43,-3.07 96.45,-2.81 96.40,-2.56 96.36,-2.31 96.26,-2.07 96.16,-1.84 96.00,-1.64 95.84,-1.43 95.64,-1.27 95.44,-1.11 95.21,-1.01 94.98,-0.90 94.73,-0.85 94.48,-0.80 91.43,-0.97 88.37,-1.15 81.65,-1.22 74.93,-1.30 67.48,-1.35 60.02,-1.41 52.19,-2.02 44.37,-2.64 33.29,-3.77 22.21,-4.91 16.65,-5.40 11.10,-5.89 8.46,-6.10 5.81,-6.32 4.40,-6.29 2.99,-6.27 1.83,-6.20 0.68,-6.13 -0.10,-6.06 -0.89,-5.98 -1.13,-6.02 -1.37,-6.06 -1.59,-6.15 -1.81,-6.24 -2.00,-6.38 -2.20,-6.52 -2.35,-6.71 -2.50,-6.89 -2.61,-7.11 -2.71,-7.32 -2.76,-7.56 -2.81,-7.79 -2.81,-8.03 -2.80,-8.27 -2.73,-8.50 -2.67,-8.74 -2.55,-8.94 -2.43,-9.15 -2.27,-9.33 -2.10,-9.50 -1.90,-9.63 -1.70,-9.76 -1.47,-9.84 -1.25,-9.92 -1.01,-9.94 -0.77,-9.96 0.65,-11.04 2.08,-12.11 9.60,-12.59 17.12,-13.06 22.83,-13.21 28.54,-13.36 33.56,-13.40 38.57,-13.44 44.16,-13.45 49.74,-13.45 52.98,-13.44 56.21,-13.43 57.87,-13.51 59.53,-13.59 60.53,-13.70 61.52,-13.81 61.74,-13.78 61.95,-13.76 62.16,-13.68 62.36,-13.60 62.55,-13.48 62.73,-13.36 62.87,-13.19 63.02,-13.03 63.12,-12.84 63.22,-12.64 63.28,-12.43 63.33,-12.22 63.33,-12.00 63.33,-11.78 63.28,-11.57 63.23,-11.35 63.13,-11.16 63.03,-10.96 62.88,-10.80 62.74,-10.64 62.56,-10.51 62.38,-10.38 62.17,-10.31 61.97,-10.23 61.75,-10.20 61.53,-10.17 52.83,-8.44 44.13,-6.71 38.95,-6.09 33.78,-5.46 22.33,-4.91 10.89,-4.37 -0.55,-3.86 -12.00,-3.35 -21.20,-3.14 -30.39,-2.93 -37.46,-2.56 -44.52,-2.19 -44.68,-2.20 -44.85,-2.22 -45.01,-2.27 -45.16,-2.33 -45.30,-2.42 -45.44,-2.51 -45.55,-2.63 -45.66,-2.75 -45.75,-2.90 -45.83,-3.04 -45.87,-3.20 -45.91,-3.36 -45.92,-3.53 -45.92,-3.69 -45.89,-3.86 -45.85,-4.02 -45.78,-4.17 -45.70,-4.31 -45.60,-4.44 -45.49,-4.57 -45.36,-4.66 -45.22,-4.76 -45.07,-4.82 -44.91,-4.89 -44.75,-4.91 -44.59,-4.93 -41.50,-4.77 -38.41,-4.61 -31.69,-4.53 -24.96,-4.45 -12.31,-4.13 0.34,-3.81 14.63,-3.38 28.92,-2.95 44.50,-1.91 60.08,-0.86 71.87,-0.13 83.65,0.59 88.95,0.90 94.25,1.22 94.40,1.25 94.56,1.27 94.70,1.34 94.85,1.41 94.98,1.50 95.10,1.60 95.20,1.73 95.30,1.85 95.36,2.00 95.43,2.14 95.46,2.30 95.48,2.46 95.47,2.62 95.46,2.78 95.42,2.93 95.37,3.08 95.29,3.22 95.20,3.35 95.09,3.47 94.98,3.58 94.84,3.66 94.70,3.74 94.55,3.79 94.40,3.84 94.24,3.85 94.08,3.86 93.04,5.03 92.00,6.20 83.03,7.74 74.05,9.27 64.85,10.15 55.65,11.04 47.13,11.41 38.60,11.78 34.42,11.94 30.24,12.09 30.08,12.08 29.92,12.07 29.76,12.02 29.61,11.97 29.47,11.88 29.34,11.80 29.23,11.68 29.11,11.57 29.03,11.43 28.95,11.29 28.91,11.13 28.86,10.98 28.85,10.82 28.85,10.66 28.88,10.50 28.91,10.34 28.98,10.19 29.05,10.05 29.15,9.92 29.25,9.80 29.38,9.70 29.51,9.60 29.65,9.54 29.80,9.48 29.96,9.45 30.12,9.42 42.90,7.76 55.69,6.09 73.59,5.08 91.49,4.07 103.99,3.65 116.49,3.23 126.70,3.06 136.90,2.88 141.52,2.82 146.14,2.75 147.24,2.59 148.34,2.43 148.53,2.45 148.73,2.47 148.91,2.54 149.09,2.60 149.26,2.71 149.42,2.82 149.55,2.96 149.68,3.10 149.78,3.27 149.87,3.45 149.92,3.63 149.97,3.82 149.97,4.02 149.98,4.21 149.93,4.40 149.89,4.59 149.80,4.77 149.71,4.94 149.59,5.09 149.46,5.24 149.30,5.35 149.14,5.46 148.96,5.54 148.78,5.61 148.59,5.63 148.40,5.66 140.08,5.85 131.77,6.04 118.88,5.85 105.98,5.67 84.09,4.14 62.20,2.61 47.14,1.10 32.09,-0.41 25.41,-1.05 18.74,-1.70 15.80,-2.29 12.86,-2.89 12.24,-3.27 11.62,-3.66 11.44,-3.72 11.26,-3.78 11.10,-3.88 10.93,-3.98 10.80,-4.12 10.67,-4.26 10.57,-4.42 10.47,-4.59 10.42,-4.77 10.36,-4.95 10.36,-5.14 10.35,-5.34 10.38,-5.52 10.42,-5.71 10.50,-5.88 10.58,-6.06 10.70,-6.21 10.82,-6.35 10.97,-6.47 11.13,-6.59 11.30,-6.66 11.48,-6.74 11.67,-6.77 11.85,-6.80 12.04,-6.79 12.23,-6.77 13.54,-7.45 14.85,-8.12 20.97,-8.79 27.10,-9.46 35.71,-9.72 44.31,-9.97 52.84,-10.08 61.38,-10.18 65.58,-10.23 69.78,-10.27 70.98,-10.41 72.19,-10.56 72.38,-10.54 72.57,-10.52 72.75,-10.45 72.93,-10.38 73.09,-10.28 73.25,-10.17 73.38,-10.03 73.51,-9.88 73.60,-9.72 73.69,-9.55 73.74,-9.36 73.79,-9.17 73.79,-8.98 73.79,-8.79 73.75,-8.60 73.70,-8.42 73.62,-8.25 73.53,-8.07 73.40,-7.93 73.28,-7.78 73.12,-7.67 72.96,-7.56 72.79,-7.49 72.61,-7.42 72.42,-7.40 72.23,-7.37 70.23,-6.90 68.24,-6.43 65.06,-6.15 61.88,-5.87 58.46,-5.77 55.04,-5.66 52.23,-5.35 49.42,-5.04 47.92,-4.80 46.42,-4.57 46.22,-4.57 46.02,-4.57 45.83,-4.62 45.63,-4.66 45.46,-4.76 45.28,-4.85 45.13,-4.98 44.98,-5.11 44.87,-5.28 44.75,-5.44 44.68,-5.63 44.61,-5.82 44.59,-6.02 44.56,-6.21 44.59,-6.41 44.61,-6.61 44.68,-6.80 44.75,-6.98 44.87,-7.15 44.98,-7.31 45.13,-7.45 45.28,-7.58 45.46,-7.67 45.63,-7.76 45.83,-7.81 46.02,-7.86 51.17,-7.73 56.31,-7.60 62.54,-7.55 68.78,-7.51 72.29,-7.48 75.81,-7.45 77.30,-7.25 78.79,-7.05 78.98,-7.03 79.18,-7.00 79.36,-6.93 79.55,-6.86 79.71,-6.75 79.87,-6.64 80.00,-6.49 80.13,-6.35 80.22,-6.17 80.31,-6.00 80.36,-5.81 80.41,-5.62 80.40,-5.42 80.40,-5.22 80.36,-5.03 80.31,-4.84 80.22,-4.67 80.13,-4.50 80.00,-4.35 79.87,-4.20 79.70,-4.09 79.54,-3.98 79.36,-3.91 79.18,-3.84 78.98,-3.82 78.79,-3.79 76.14,-2.44 73.50,-1.10 67.29,-0.35 61.08,0.38 55.64,0.96 50.19,1.53 43.80,1.77 37.42,2.02 34.44,2.11 31.46,2.21 31.29,2.20 31.13,2.18 30.97,2.13 30.81,2.08 30.67,1.99 30.53,1.90 30.42,1.78 30.30,1.66 30.22,1.52 30.14,1.37 30.09,1.21 30.04,1.06 30.04,0.89 30.03,0.72 30.06,0.56 30.10,0.40 30.17,0.25 30.24,0.10 30.34,-0.02 30.45,-0.15 30.58,-0.25 30.71,-0.34 30.87,-0.41 31.02,-0.47 31.18,-0.50 31.35,-0.53 33.29,-0.53 35.23,-0.54 43.76,-0.78 52.28,-1.03 63.13,-1.13 73.97,-1.23 82.89,-1.26 91.81,-1.30 96.46,-1.31 101.12,-1.32 102.80,-1.12 104.49,-0.92 104.67,-0.90 104.85,-0.88 105.02,-0.81 105.19,-0.75 105.34,-0.65 105.49,-0.54 105.62,-0.41 105.74,-0.27 105.82,-0.11 105.91,0.04 105.95,0.22 106.00,0.39 106.00,0.58 106.00,0.76 105.96,0.94 105.91,1.11 105.83,1.27 105.74,1.44 105.62,1.57 105.50,1.71 105.36,1.81 105.21,1.92 105.04,1.98 104.87,2.05 104.69,2.07 104.50,2.09 103.28,2.25 102.05,2.41 98.39,2.99 94.73,3.57 89.04,3.82 83.35,4.06 72.89,4.16 62.43,4.25 55.12,4.28 47.81,4.32 42.69,4.33 37.57,4.34 37.41,4.32 37.24,4.30 37.09,4.24 36.93,4.18 36.80,4.09 36.66,4.00 36.55,3.87 36.44,3.75 36.36,3.60 36.28,3.46 36.24,3.30 36.20,3.14 36.20,2.97 36.20,2.81 36.24,2.65 36.28,2.49 36.35,2.34 36.43,2.19 36.54,2.07 36.65,1.94 36.78,1.85 36.92,1.76 37.07,1.70 37.22,1.64 37.39,1.62 37.55,1.59 39.12,1.50 40.69,1.40 48.51,1.16 56.33,0.91 67.17,0.82 78.00,0.72 87.79,0.98 97.59,1.23 104.06,1.63 110.54,2.04 113.28,2.50 116.02,2.96 116.19,2.99 116.35,3.02 116.50,3.09 116.65,3.16 116.78,3.26 116.91,3.36 117.01,3.49 117.11,3.62 117.18,3.77 117.25,3.92 117.28,4.08 117.31,4.24 117.30,4.41 117.29,4.57 117.24,4.73 117.19,4.89 117.10,5.03 117.02,5.17 116.90,5.29 116.78,5.40 116.64,5.49 116.50,5.57 116.35,5.62 116.19,5.67 116.02,5.68 115.86,5.69 114.39,6.22 112.93,6.74 106.59,7.23 100.26,7.72 88.96,7.91 77.66,8.10 67.12,8.18 56.58,8.25 44.00,7.42 31.42,6.58 24.39,6.22 17.35,5.86 14.19,5.36 11.03,4.86 10.70,4.55 10.38,4.23 10.20,4.18 10.02,4.13 9.85,4.04 9.69,3.95 9.55,3.83 9.41,3.70 9.31,3.54 9.21,3.38 9.15,3.21 9.08,3.03 9.07,2.84 9.05,2.66 9.07,2.47 9.10,2.29 9.17,2.11 9.24,1.94 9.35,1.79 9.46,1.64 9.61,1.51 9.75,1.39 9.92,1.31 10.09,1.23 10.27,1.19 10.45,1.15 10.64,1.15 10.83,1.16 13.48,0.23 16.13,-0.68 22.70,-1.74 29.26,-2.79 41.55,-3.52 53.84,-4.25 61.64,-4.55 69.44,-4.86 74.76,-5.28 80.08,-5.69 80.24,-5.68 80.39,-5.67 80.55,-5.62 80.70,-5.57 80.83,-5.48 80.96,-5.40 81.07,-5.28 81.18,-5.17 81.26,-5.03 81.34,-4.89 81.39,-4.74 81.43,-4.59 81.44,-4.43 81.44,-4.27 81.41,-4.11 81.38,-3.96 81.31,-3.81 81.24,-3.67 81.14,-3.55 81.04,-3.42 80.92,-3.33 80.79,-3.23 80.64,-3.17 80.50,-3.11 80.34,-3.08 80.18,-3.06 77.27,-2.95 74.35,-2.84 67.63,-2.79 60.91,-2.75 46.85,-2.73 32.78,-2.71 16.44,-2.99 0.11,-3.27 -6.85,-3.68 -13.82,-4.08 -15.34,-4.44 -16.85,-4.80 -17.03,-4.84 -17.21,-4.87 -17.37,-4.94 -17.54,-5.02 -17.68,-5.13 -17.83,-5.24 -17.94,-5.39 -18.05,-5.53 -18.13,-5.70 -18.20,-5.86 -18.24,-6.04 -18.27,-6.22 -18.26,-6.40 -18.25,-6.58 -18.20,-6.76 -18.14,-6.93 -18.05,-7.09 -17.95,-7.25 -17.82,-7.37 -17.70,-7.50 -17.54,-7.60 -17.38,-7.69 -17.21,-7.75 -17.04,-7.80 -16.85,-7.81 -16.67,-7.82 -10.05,-8.39 -3.42,-8.95 11.37,-9.08 26.16,-9.21 35.31,-9.26 44.46,-9.31 49.79,-9.32 55.12,-9.34 57.09,-9.38 59.07,-9.41 59.24,-9.39 59.41,-9.37 59.57,-9.31 59.73,-9.25 59.88,-9.15 60.02,-9.06 60.14,-8.93 60.25,-8.80 60.33,-8.65 60.41,-8.49 60.46,-8.33 60.50,-8.16 60.50,-7.98 60.50,-7.81 60.46,-7.64 60.42,-7.48 60.34,-7.32 60.26,-7.17 60.15,-7.04 60.03,-6.91 59.89,-6.81 59.75,-6.71 59.59,-6.65 59.43,-6.59 59.25,-6.56 59.08,-6.54 57.02,-5.33 54.97,-4.11 50.37,-3.38 45.77,-2.64 42.76,-2.07 39.74,-1.50 38.18,-0.89 36.62,-0.27 36.43,-0.26 36.25,-0.25 36.06,-0.28 35.88,-0.31 35.71,-0.38 35.54,-0.46 35.39,-0.57 35.24,-0.69 35.13,-0.83 35.01,-0.98 34.93,-1.15 34.85,-1.31 34.82,-1.50 34.78,-1.68 34.79,-1.87 34.80,-2.05 34.86,-2.23 34.91,-2.41 35.00,-2.57 35.10,-2.73 35.23,-2.86 35.36,-3.00 35.52,-3.09 35.68,-3.19 35.85,-3.25 36.03,-3.31 37.66,-3.11 39.28,-2.92 43.76,-2.79 48.23,-2.67 59.95,-2.60 71.66,-2.53 79.83,-2.20 88.01,-1.87 92.28,-1.26 96.56,-0.66 96.46,1.16 96.36,2.99 92.04,4.31 87.71,5.63 80.31,6.45 72.90,7.26 66.03,7.59 59.16,7.92 53.94,8.05 48.72,8.18 45.65,8.23 42.58,8.28 42.41,8.27 42.25,8.25 42.09,8.20 41.93,8.14 41.79,8.05 41.65,7.96 41.54,7.84 41.43,7.72 41.34,7.57 41.26,7.43 41.22,7.27 41.17,7.11 41.17,6.94 41.16,6.77 41.20,6.61 41.23,6.45 41.31,6.30 41.38,6.15 41.49,6.02 41.59,5.90 41.73,5.80 41.86,5.70 42.02,5.64 42.17,5.57 42.33,5.55 42.50,5.52 48.02,4.50 53.54,3.48 60.87,3.21 68.21,2.95 74.19,2.84 80.16,2.74 81.25,2.86 82.34,2.97 82.54,2.99 82.74,3.01 82.93,3.08 83.12,3.15 83.29,3.26 83.46,3.37 83.60,3.52 83.73,3.67 83.83,3.85 83.93,4.02 83.98,4.22 84.03,4.41 84.04,4.61 84.04,4.82 84.00,5.01 83.95,5.21 83.86,5.39 83.77,5.57 83.64,5.72 83.51,5.88 83.35,6.00 83.18,6.11 83.00,6.19 82.81,6.26 82.61,6.29 82.41,6.32 77.78,6.85 73.16,7.39 68.51,7.67 63.86,7.95 60.19,8.06 56.51,8.17 56.35,8.16 56.19,8.15 56.03,8.10 55.87,8.06 55.73,7.97 55.59,7.89 55.48,7.77 55.36,7.66 55.27,7.52 55.19,7.38 55.14,7.22 55.09,7.06 55.08,6.90 55.07,6.74 55.10,6.57 55.13,6.41 55.20,6.26 55.26,6.11 55.36,5.98 55.46,5.85 55.59,5.75 55.72,5.65 55.87,5.58 56.02,5.52 56.18,5.49 56.34,5.46 59.02,4.75 61.69,4.04 64.62,4.20 67.55,4.37 67.68,4.15 67.82,3.94 68.02,3.78 68.22,3.62 68.46,3.53 68.70,3.44 68.96,3.44 69.21,3.43 69.46,3.51 69.70,3.58 69.91,3.73 70.12,3.88 70.26,4.09 70.41,4.30 70.49,4.54 70.56,4.79 70.55,5.04 70.55,5.30 70.46,5.54 70.37,5.78 70.21,5.98 70.05,6.17 69.83,6.31 69.61,6.45 69.37,6.51 69.12,6.57 68.86,6.55 68.61,6.53 68.37,6.42 68.14,6.32 67.95,6.15 67.76,5.98 67.64,5.76 67.51,5.53 67.46,5.28 67.42,5.03 67.45,4.78 67.49,4.53 67.60,4.30 67.72,4.07 67.90,3.89 68.08,3.71 68.31,3.60 68.54,3.48 68.79,3.45 69.04,3.42 69.29,3.47 69.55,3.51 69.77,3.64 69.99,3.77 70.16,3.96 70.33,4.15 70.43,4.38 70.53,4.62 70.55,4.87 70.57,5.13 70.51,5.38 70.44,5.62 70.44,5.62 70.44,5.62 66.36,6.36 62.27,7.10 59.39,7.63 56.51,8.17 56.35,8.16 56.19,8.15 56.03,8.10 55.87,8.06 55.73,7.97 55.59,7.89 55.48,7.77 55.36,7.66 55.27,7.52 55.19,7.38 55.14,7.22 55.09,7.06 55.08,6.90 55.07,6.74 55.10,6.57 55.13,6.41 55.20,6.26 55.26,6.11 55.36,5.98 55.46,5.86 55.59,5.75 55.72,5.65 55.87,5.58 56.02,5.52 56.18,5.49 56.34,5.46 60.02,5.33 63.69,5.20 68.23,4.90 72.76,4.61 77.55,3.79 82.34,2.97 82.54,2.99 82.74,3.01 82.93,3.08 83.12,3.15 83.29,3.26 83.46,3.37 83.60,3.52 83.73,3.67 83.83,3.85 83.93,4.02 83.98,4.22 84.03,4.41 84.04,4.61 84.04,4.81 84.00,5.01 83.95,5.21 83.86,5.39 83.77,5.57 83.64,5.72 83.51,5.88 83.35,6.00 83.18,6.11 83.00,6.19 82.81,6.26 82.61,6.29 82.41,6.32 81.31,5.97 80.21,5.61 74.27,5.76 68.33,5.91 61.15,6.22 53.96,6.54 48.27,7.41 42.58,8.28 42.41,8.27 42.25,8.25 42.09,8.20 41.93,8.14 41.79,8.05 41.65,7.96 41.54,7.84 41.43,7.72 41.34,7.57 41.26,7.43 41.22,7.27 41.17,7.11 41.17,6.94 41.16,6.77 41.20,6.61 41.23,6.45 41.31,6.30 41.38,6.15 41.49,6.02 41.59,5.90 41.73,5.80 41.86,5.70 42.02,5.64 42.17,5.57 42.33,5.55 42.50,5.52 45.57,5.45 48.64,5.37 53.83,5.21 59.01,5.04 65.79,4.67 72.57,4.31 79.70,3.48 86.84,2.66 90.59,1.46 94.34,0.27 91.12,0.62 87.90,0.97 79.78,0.69 71.65,0.40 59.91,0.39 48.17,0.38 43.46,0.31 38.74,0.25 37.68,-0.01 36.62,-0.27 36.43,-0.26 36.25,-0.25 36.06,-0.28 35.88,-0.31 35.71,-0.38 35.54,-0.46 35.39,-0.57 35.24,-0.69 35.13,-0.83 35.01,-0.98 34.93,-1.15 34.85,-1.31 34.82,-1.50 34.78,-1.68 34.79,-1.87 34.80,-2.05 34.86,-2.23 34.91,-2.41 35.00,-2.57 35.10,-2.73 35.23,-2.86 35.36,-3.00 35.52,-3.09 35.68,-3.19 35.85,-3.25 36.03,-3.31 37.62,-3.76 39.21,-4.22 42.27,-4.83 45.32,-5.43 49.59,-6.11 53.85,-6.79 56.46,-8.10 59.07,-9.41 59.24,-9.39 59.41,-9.37 59.57,-9.31 59.73,-9.25 59.88,-9.15 60.02,-9.06 60.14,-8.93 60.25,-8.80 60.33,-8.65 60.41,-8.49 60.46,-8.33 60.50,-8.16 60.50,-7.98 60.50,-7.81 60.46,-7.64 60.42,-7.48 60.34,-7.32 60.26,-7.17 60.15,-7.04 60.03,-6.91 59.89,-6.81 59.75,-6.71 59.59,-6.65 59.43,-6.59 59.25,-6.56 59.08,-6.54 57.11,-6.55 55.13,-6.57 49.81,-6.53 44.48,-6.48 35.34,-6.40 26.20,-6.31 11.48,-6.13 -3.23,-5.95 -8.77,-5.55 -14.32,-5.16 -15.58,-4.98 -16.85,-4.80 -17.03,-4.84 -17.21,-4.87 -17.37,-4.94 -17.54,-5.02 -17.68,-5.13 -17.83,-5.24 -17.94,-5.39 -18.05,-5.53 -18.13,-5.70 -18.20,-5.86 -18.24,-6.04 -18.27,-6.22 -18.26,-6.40 -18.25,-6.58 -18.20,-6.76 -18.14,-6.93 -18.05,-7.09 -17.95,-7.25 -17.82,-7.37 -17.70,-7.50 -17.54,-7.60 -17.38,-7.69 -17.21,-7.75 -17.04,-7.80 -16.85,-7.81 -16.67,-7.82 -15.16,-7.27 -13.65,-6.71 -6.75,-6.30 0.15,-5.90 16.46,-5.62 32.78,-5.34 46.83,-5.36 60.89,-5.38 67.57,-5.43 74.25,-5.48 77.17,-5.59 80.08,-5.69 80.24,-5.68 80.39,-5.67 80.55,-5.62 80.70,-5.57 80.83,-5.48 80.96,-5.40 81.07,-5.28 81.18,-5.17 81.26,-5.03 81.34,-4.89 81.39,-4.74 81.43,-4.59 81.44,-4.43 81.44,-4.27 81.41,-4.11 81.38,-3.96 81.31,-3.81 81.24,-3.67 81.14,-3.55 81.04,-3.42 80.92,-3.33 80.79,-3.23 80.64,-3.17 80.50,-3.11 80.34,-3.08 80.18,-3.06 74.86,-2.64 69.54,-2.22 61.77,-1.91 54.00,-1.60 41.84,-0.88 29.68,-0.16 23.35,0.83 17.02,1.83 13.70,3.03 10.38,4.23 10.20,4.18 10.02,4.13 9.85,4.04 9.69,3.95 9.55,3.83 9.41,3.70 9.31,3.54 9.21,3.38 9.15,3.21 9.08,3.03 9.07,2.84 9.05,2.66 9.07,2.47 9.10,2.29 9.17,2.11 9.24,1.94 9.35,1.79 9.46,1.64 9.61,1.51 9.75,1.39 9.92,1.31 10.09,1.23 10.27,1.19 10.45,1.15 10.64,1.15 10.83,1.16 11.32,1.79 11.82,2.42 14.65,2.79 17.48,3.16 24.54,3.50 31.60,3.85 44.08,4.66 56.55,5.47 67.08,5.37 77.61,5.27 88.82,5.04 100.03,4.82 106.07,4.32 112.12,3.83 114.07,3.40 116.02,2.96 116.19,2.99 116.35,3.02 116.50,3.09 116.65,3.16 116.78,3.26 116.91,3.36 117.01,3.49 117.11,3.62 117.18,3.77 117.25,3.92 117.28,4.08 117.31,4.24 117.30,4.41 117.29,4.57 117.24,4.73 117.19,4.89 117.10,5.03 117.02,5.17 116.90,5.29 116.78,5.40 116.64,5.49 116.50,5.57 116.35,5.62 116.19,5.67 116.02,5.68 115.86,5.69 113.12,5.25 110.37,4.81 103.95,4.43 97.52,4.06 87.77,3.84 78.03,3.63 67.24,3.77 56.44,3.92 48.56,4.24 40.68,4.56 39.12,4.45 37.57,4.34 37.41,4.32 37.24,4.30 37.09,4.24 36.93,4.18 36.80,4.09 36.66,4.00 36.55,3.87 36.44,3.75 36.36,3.61 36.28,3.46 36.24,3.30 36.20,3.14 36.20,2.97 36.20,2.81 36.24,2.65 36.28,2.49 36.35,2.34 36.43,2.19 36.54,2.07 36.65,1.94 36.78,1.85 36.92,1.76 37.07,1.70 37.22,1.64 37.39,1.62 37.55,1.59 42.67,1.56 47.79,1.53 55.09,1.47 62.40,1.41 72.80,1.27 83.21,1.14 88.72,0.86 94.23,0.57 98.00,-0.09 101.76,-0.76 103.13,-0.84 104.49,-0.92 104.67,-0.90 104.85,-0.88 105.02,-0.81 105.19,-0.75 105.34,-0.65 105.49,-0.54 105.62,-0.41 105.74,-0.27 105.82,-0.11 105.91,0.04 105.95,0.22 106.00,0.39 106.00,0.58 106.00,0.76 105.96,0.94 105.91,1.11 105.83,1.27 105.75,1.44 105.62,1.57 105.50,1.71 105.36,1.81 105.21,1.92 105.04,1.98 104.87,2.05 104.69,2.07 104.50,2.09 102.81,1.74 101.12,1.38 96.47,1.41 91.82,1.44 82.91,1.50 74.00,1.56 63.19,1.69 52.37,1.82 43.77,2.11 35.16,2.40 33.31,2.31 31.46,2.21 31.29,2.20 31.13,2.18 30.97,2.13 30.81,2.08 30.67,1.99 30.53,1.90 30.42,1.78 30.30,1.66 30.22,1.52 30.14,1.37 30.09,1.21 30.04,1.06 30.04,0.89 30.03,0.72 30.06,0.56 30.10,0.40 30.17,0.25 30.24,0.10 30.34,-0.02 30.45,-0.15 30.58,-0.25 30.71,-0.34 30.87,-0.41 31.02,-0.47 31.18,-0.50 31.35,-0.53 34.33,-0.65 37.30,-0.77 43.59,-1.03 49.88,-1.30 55.30,-1.92 60.73,-2.53 66.58,-3.25 72.42,-3.96 74.77,-4.76 77.11,-5.55 77.95,-6.30 78.79,-7.05 78.98,-7.03 79.18,-7.00 79.36,-6.93 79.55,-6.86 79.71,-6.75 79.87,-6.64 80.00,-6.49 80.13,-6.35 80.22,-6.17 80.31,-6.00 80.36,-5.81 80.41,-5.62 80.40,-5.42 80.40,-5.22 80.36,-5.03 80.31,-4.84 80.22,-4.67 80.13,-4.50 80.00,-4.35 79.87,-4.20 79.70,-4.09 79.54,-3.98 79.36,-3.91 79.18,-3.84 78.98,-3.82 78.79,-3.79 77.29,-4.18 75.79,-4.56 72.28,-4.54 68.77,-4.52 62.53,-4.49 56.29,-4.47 51.36,-4.52 46.42,-4.57 46.22,-4.57 46.02,-4.57 45.83,-4.62 45.63,-4.66 45.46,-4.76 45.28,-4.85 45.13,-4.98 44.98,-5.11 44.87,-5.28 44.75,-5.44 44.68,-5.63 44.61,-5.82 44.59,-6.02 44.56,-6.21 44.59,-6.41 44.61,-6.61 44.68,-6.80 44.75,-6.98 44.87,-7.15 44.98,-7.31 45.13,-7.45 45.28,-7.58 45.46,-7.67 45.63,-7.76 45.83,-7.81 46.02,-7.86 47.54,-7.92 49.06,-7.98 51.98,-8.36 54.91,-8.75 58.22,-8.93 61.54,-9.12 64.75,-9.51 67.95,-9.91 70.07,-10.23 72.19,-10.56 72.38,-10.54 72.57,-10.52 72.75,-10.45 72.93,-10.38 73.09,-10.28 73.25,-10.17 73.38,-10.03 73.51,-9.89 73.60,-9.72 73.69,-9.55 73.74,-9.36 73.79,-9.18 73.79,-8.98 73.79,-8.79 73.75,-8.60 73.70,-8.42 73.62,-8.25 73.53,-8.07 73.40,-7.93 73.28,-7.78 73.12,-7.67 72.96,-7.56 72.79,-7.49 72.61,-7.42 72.42,-7.40 72.23,-7.37 71.02,-7.48 69.81,-7.58 65.61,-7.52 61.42,-7.47 52.91,-7.35 44.40,-7.23 35.90,-6.95 27.40,-6.68 21.69,-6.10 15.99,-5.51 13.80,-4.59 11.62,-3.66 11.44,-3.72 11.26,-3.78 11.10,-3.88 10.93,-3.98 10.80,-4.12 10.67,-4.26 10.57,-4.42 10.47,-4.59 10.42,-4.77 10.36,-4.95 10.36,-5.14 10.35,-5.34 10.38,-5.52 10.42,-5.71 10.50,-5.88 10.58,-6.06 10.70,-6.21 10.82,-6.35 10.97,-6.47 11.13,-6.59 11.30,-6.66 11.48,-6.74 11.66,-6.77 11.85,-6.80 12.04,-6.79 12.23,-6.77 12.88,-6.11 13.52,-5.45 16.26,-4.93 19.00,-4.40 25.68,-3.77 32.36,-3.14 47.38,-1.64 62.39,-0.15 84.21,1.33 106.02,2.82 118.84,2.97 131.67,3.12 140.00,2.77 148.34,2.43 148.53,2.45 148.73,2.47 148.91,2.54 149.09,2.60 149.26,2.71 149.42,2.82 149.55,2.96 149.68,3.10 149.78,3.27 149.87,3.45 149.92,3.63 149.97,3.82 149.97,4.02 149.98,4.21 149.93,4.40 149.89,4.59 149.80,4.77 149.71,4.94 149.59,5.09 149.46,5.24 149.30,5.35 149.14,5.46 148.96,5.54 148.78,5.61 148.59,5.63 148.40,5.66 147.29,5.57 146.19,5.48 141.57,5.57 136.95,5.66 126.77,5.86 116.59,6.06 104.12,6.51 91.65,6.97 73.80,8.03 55.95,9.09 44.03,10.03 32.10,10.97 31.17,11.53 30.24,12.09 30.08,12.08 29.92,12.07 29.76,12.02 29.61,11.97 29.47,11.88 29.34,11.80 29.23,11.68 29.11,11.57 29.03,11.43 28.95,11.29 28.91,11.13 28.86,10.98 28.85,10.82 28.85,10.66 28.88,10.50 28.91,10.34 28.98,10.19 29.05,10.05 29.15,9.92 29.25,9.80 29.38,9.70 29.51,9.60 29.65,9.54 29.80,9.48 29.96,9.45 30.12,9.42 34.30,9.26 38.49,9.10 46.94,8.72 55.39,8.34 64.50,7.45 73.61,6.56 82.00,5.28 90.38,4.00 92.31,2.61 94.25,1.22 94.40,1.25 94.56,1.27 94.70,1.34 94.85,1.41 94.98,1.50 95.10,1.60 95.20,1.73 95.30,1.85 95.36,2.00 95.43,2.14 95.46,2.30 95.48,2.46 95.47,2.62 95.46,2.78 95.42,2.93 95.37,3.08 95.29,3.22 95.20,3.35 95.09,3.47 94.98,3.58 94.84,3.66 94.71,3.74 94.55,3.79 94.40,3.84 94.24,3.85 94.08,3.86 88.79,3.55 83.49,3.24 71.70,2.51 59.91,1.78 44.37,0.74 28.84,-0.28 14.55,-0.70 0.27,-1.12 -12.36,-1.43 -24.99,-1.74 -31.77,-1.80 -38.56,-1.86 -41.54,-2.03 -44.52,-2.19 -44.68,-2.20 -44.85,-2.22 -45.01,-2.27 -45.16,-2.33 -45.30,-2.42 -45.44,-2.51 -45.55,-2.63 -45.66,-2.75 -45.75,-2.90 -45.83,-3.04 -45.87,-3.20 -45.91,-3.36 -45.92,-3.53 -45.92,-3.69 -45.89,-3.86 -45.85,-4.02 -45.78,-4.17 -45.70,-4.31 -45.60,-4.44 -45.49,-4.57 -45.36,-4.66 -45.22,-4.76 -45.07,-4.82 -44.91,-4.89 -44.75,-4.91 -44.59,-4.93 -37.52,-5.33 -30.46,-5.72 -21.30,-5.96 -12.14,-6.20 -0.69,-6.75 10.74,-7.31 22.06,-7.90 33.38,-8.49 38.47,-9.19 43.56,-9.89 52.54,-11.85 61.52,-13.81 61.74,-13.78 61.95,-13.76 62.16,-13.68 62.36,-13.60 62.54,-13.48 62.73,-13.36 62.87,-13.19 63.02,-13.03 63.12,-12.84 63.22,-12.64 63.28,-12.43 63.33,-12.22 63.33,-12.00 63.33,-11.78 63.28,-11.57 63.23,-11.35 63.13,-11.16 63.03,-10.96 62.88,-10.80 62.74,-10.64 62.56,-10.51 62.38,-10.38 62.17,-10.31 61.97,-10.23 61.75,-10.20 61.53,-10.17 60.54,-10.28 59.55,-10.38 57.89,-10.45 56.23,-10.51 52.99,-10.47 49.76,-10.42 44.20,-10.35 38.63,-10.27 33.65,-10.13 28.67,-9.98 23.03,-9.70 17.38,-9.41 10.37,-8.85 3.36,-8.30 2.22,-8.15 1.07,-8.01 0.08,-6.99 -0.89,-5.98 -1.13,-6.02 -1.37,-6.06 -1.59,-6.15 -1.81,-6.24 -2.00,-6.38 -2.20,-6.52 -2.35,-6.71 -2.50,-6.89 -2.61,-7.11 -2.71,-7.32 -2.76,-7.56 -2.81,-7.79 -2.81,-8.03 -2.80,-8.27 -2.73,-8.50 -2.67,-8.73 -2.55,-8.94 -2.43,-9.15 -2.27,-9.33 -2.10,-9.50 -1.90,-9.63 -1.70,-9.76 -1.47,-9.84 -1.25,-9.92 -1.01,-9.94 -0.77,-9.96 0.00,-9.86 0.79,-9.75 1.99,-9.61 3.18,-9.47 4.60,-9.28 6.02,-9.08 8.68,-8.90 11.34,-8.71 16.92,-8.26 22.50,-7.80 33.54,-6.73 44.59,-5.65 52.31,-5.11 60.02,-4.57 67.48,-4.62 74.94,-4.66 81.67,-4.72 88.40,-4.78 91.29,-4.91 94.18,-5.04 94.44,-5.02 94.69,-5.01 94.94,-4.94 95.18,-4.86 95.40,-4.73 95.62,-4.60 95.80,-4.42 95.99,-4.24 96.12,-4.03 96.26,-3.81 96.33,-3.56 96.41,-3.32 96.43,-3.07 96.45,-2.81 96.40,-2.56 96.36,-2.31 96.26,-2.07 96.16,-1.84 96.00,-1.64 95.84,-1.43 95.64,-1.27 95.44,-1.11 95.21,-1.01 94.98,-0.90 94.73,-0.85 94.48,-0.80 94.02,-0.81 93.57,-0.82 91.90,-0.70 90.23,-0.59 88.04,-0.18 85.84,0.21 84.38,0.18 82.92,0.16 80.93,0.04 78.94,-0.07 77.23,-0.28 75.51,-0.49 73.84,-0.58 72.17,-0.67 69.58,-0.68 67.00,-0.70 62.94,-0.74 58.88,-0.78 55.44,-0.89 52.00,-0.99 45.32,-1.25 38.63,-1.52 32.30,-1.48 25.96,-1.44 23.23,-1.39 20.51,-1.33 17.48,-1.23 14.45,-1.14 11.20,-0.88 7.95,-0.62 6.20,-0.12 4.46,0.37 2.46,0.99 0.45,1.60 0.25,1.63 0.06,1.66 -0.13,1.65 -0.33,1.63 -0.53,1.57 -0.72,1.50 -0.89,1.39 -1.06,1.28 -1.19,1.14 -1.33,0.99 -1.43,0.82 -1.53,0.64 -1.59,0.45 -1.64,0.26 -1.65,0.06 -1.66,-0.14 -1.62,-0.33 -1.58,-0.53 -1.49,-0.71 -1.40,-0.89 -1.27,-1.05 -1.15,-1.20 -0.99,-1.32 -0.82,-1.44 -0.64,-1.52 -0.45,-1.60 -0.45,-1.60 L -0.45,-1.60 Z"></path></g><g stroke-linecap="round"><g stroke-opacity="0.1" fill-opacity="0.1" transform="translate(603 573) rotate(0 -2.5 -3)"><path d="M-0.28 0.21 C-1.21 -0.82, -4.47 -4.95, -5.29 -5.98 M0.22 0.01 C-0.63 -0.97, -3.68 -4.59, -4.64 -5.52" stroke="#1e1e1e" stroke-width="1" fill="none"></path></g></g><mask></mask><g stroke-opacity="0.3" fill-opacity="0.3" transform="translate(571 553) rotate(0 99.98333740234375 50)"><text x="0" y="17.52" font-family="Virgil, Segoe UI Emoji" font-size="20px" fill="#1e1e1e" text-anchor="start" style="white-space: pre;" direction="ltr" dominant-baseline="alphabetic">if email&amp;pswd </text><text x="0" y="42.519999999999996" font-family="Virgil, Segoe UI Emoji" font-size="20px" fill="#1e1e1e" text-anchor="start" style="white-space: pre;" direction="ltr" dominant-baseline="alphabetic">exists, it will return</text><text x="0" y="67.52" font-family="Virgil, Segoe UI Emoji" font-size="20px" fill="#1e1e1e" text-anchor="start" style="white-space: pre;" direction="ltr" dominant-baseline="alphabetic">the users </text><text x="0" y="92.52" font-family="Virgil, Segoe UI Emoji" font-size="20px" fill="#1e1e1e" text-anchor="start" style="white-space: pre;" direction="ltr" dominant-baseline="alphabetic">information </text></g><g stroke-linecap="round"><g stroke-opacity="0.3" fill-opacity="0.3" transform="translate(645 660) rotate(0 0 12)"><path d="M-0.16 -0.09 C-0.27 4.01, -0.17 20.52, -0.19 24.47 M0.75 -0.61 C0.52 3.35, -0.47 19.65, -0.72 23.74" stroke="#1e1e1e" stroke-width="1" fill="none"></path></g></g><mask></mask><g stroke-opacity="0.3" fill-opacity="0.3" transform="translate(582 696) rotate(0 78.68331909179688 112.5)"><text x="0" y="17.52" font-family="Virgil, Segoe UI Emoji" font-size="20px" fill="#1e1e1e" text-anchor="start" style="white-space: pre;" direction="ltr" dominant-baseline="alphabetic">meanwhile, it </text><text x="0" y="42.519999999999996" font-family="Virgil, Segoe UI Emoji" font-size="20px" fill="#1e1e1e" text-anchor="start" style="white-space: pre;" direction="ltr" dominant-baseline="alphabetic">creates a </text><text x="0" y="67.52" font-family="Virgil, Segoe UI Emoji" font-size="20px" fill="#1e1e1e" text-anchor="start" style="white-space: pre;" direction="ltr" dominant-baseline="alphabetic">token(as a </text><text x="0" y="92.52" font-family="Virgil, Segoe UI Emoji" font-size="20px" fill="#1e1e1e" text-anchor="start" style="white-space: pre;" direction="ltr" dominant-baseline="alphabetic">verification for </text><text x="0" y="117.52" font-family="Virgil, Segoe UI Emoji" font-size="20px" fill="#1e1e1e" text-anchor="start" style="white-space: pre;" direction="ltr" dominant-baseline="alphabetic">when you </text><text x="0" y="142.52" font-family="Virgil, Segoe UI Emoji" font-size="20px" fill="#1e1e1e" text-anchor="start" style="white-space: pre;" direction="ltr" dominant-baseline="alphabetic">access the </text><text x="0" y="167.52" font-family="Virgil, Segoe UI Emoji" font-size="20px" fill="#1e1e1e" text-anchor="start" style="white-space: pre;" direction="ltr" dominant-baseline="alphabetic">page next time)</text><text x="0" y="192.52" font-family="Virgil, Segoe UI Emoji" font-size="20px" fill="#1e1e1e" text-anchor="start" style="white-space: pre;" direction="ltr" dominant-baseline="alphabetic">that has an </text><text x="0" y="217.52" font-family="Virgil, Segoe UI Emoji" font-size="20px" fill="#1e1e1e" text-anchor="start" style="white-space: pre;" direction="ltr" dominant-baseline="alphabetic">expiry date</text></g></svg>